<?xml version="1.0" encoding="UTF-8"?>
<svg id="Layer_2" data-name="Layer 2" xmlns="http://www.w3.org/2000/svg" viewBox="0 0 609.62 114.26">
  <defs>
    <style>
      .cls-1 {
        fill: #19baf2;
      }

      .cls-1, .cls-2, .cls-3 {
        stroke-width: 0px;
      }

      .cls-2 {
        fill: #0ba9ce;
      }

      .cls-3 {
        fill: #fff;
      }
    </style>
  </defs>
  <g id="Layer_1-2" data-name="Layer 1">
    <g>
      <g>
        <path class="cls-3" d="M140.38,38.64v-10.87h48.18v10.87h-17.63v47.94h-12.93v-47.94h-17.63Z"/>
        <path class="cls-3" d="M239.31,27.76v10.87h-31.05v12.6h28.5v10.05h-28.5v14.41h31.71v10.87h-44.64V27.76h43.98Z"/>
        <path class="cls-3" d="M286.42,43.46c-.77-1.24-1.73-2.32-2.88-3.25-1.15-.93-2.46-1.66-3.91-2.18-1.46-.52-2.98-.78-4.57-.78-2.91,0-5.38.56-7.41,1.69-2.03,1.13-3.68,2.64-4.94,4.53-1.26,1.89-2.18,4.05-2.76,6.47-.58,2.42-.86,4.91-.86,7.5s.29,4.87.86,7.21c.58,2.33,1.5,4.43,2.76,6.3,1.26,1.87,2.91,3.36,4.94,4.49,2.03,1.13,4.5,1.69,7.41,1.69,3.95,0,7.04-1.21,9.27-3.62,2.22-2.42,3.58-5.6,4.08-9.55h12.52c-.33,3.68-1.18,7-2.55,9.97-1.37,2.97-3.19,5.49-5.44,7.58-2.25,2.09-4.89,3.68-7.91,4.78-3.02,1.1-6.34,1.65-9.97,1.65-4.5,0-8.55-.78-12.15-2.35-3.6-1.56-6.63-3.72-9.1-6.47-2.47-2.75-4.36-5.97-5.68-9.68s-1.98-7.7-1.98-11.98.66-8.47,1.98-12.23c1.32-3.76,3.21-7.04,5.68-9.84,2.47-2.8,5.5-5,9.1-6.59,3.6-1.59,7.65-2.39,12.15-2.39,3.24,0,6.3.47,9.18,1.4,2.88.93,5.46,2.29,7.74,4.08,2.28,1.78,4.16,3.99,5.64,6.63,1.48,2.64,2.41,5.66,2.8,9.06h-12.52c-.22-1.48-.71-2.84-1.48-4.08Z"/>
        <path class="cls-3" d="M322.58,27.76l24.55,39.45h.16V27.76h12.11v58.81h-12.93l-24.46-39.37h-.16v39.37h-12.11V27.76h12.85Z"/>
        <path class="cls-3" d="M370.19,45.18c1.32-3.76,3.21-7.04,5.68-9.84,2.47-2.8,5.5-5,9.1-6.59,3.6-1.59,7.65-2.39,12.15-2.39s8.62.8,12.19,2.39c3.57,1.59,6.59,3.79,9.06,6.59,2.47,2.8,4.36,6.08,5.68,9.84,1.32,3.76,1.98,7.84,1.98,12.23s-.66,8.28-1.98,11.98-3.21,6.93-5.68,9.68c-2.47,2.75-5.49,4.9-9.06,6.47-3.57,1.56-7.63,2.35-12.19,2.35s-8.55-.78-12.15-2.35c-3.6-1.56-6.63-3.72-9.1-6.47-2.47-2.75-4.36-5.97-5.68-9.68-1.32-3.71-1.98-7.7-1.98-11.98s.66-8.47,1.98-12.23ZM382.01,64.62c.58,2.33,1.5,4.43,2.76,6.3,1.26,1.87,2.91,3.36,4.94,4.49,2.03,1.13,4.5,1.69,7.41,1.69s5.38-.56,7.41-1.69c2.03-1.12,3.68-2.62,4.94-4.49,1.26-1.87,2.18-3.97,2.76-6.3.58-2.33.86-4.74.86-7.21s-.29-5.08-.86-7.5c-.58-2.42-1.5-4.57-2.76-6.47-1.26-1.89-2.91-3.4-4.94-4.53-2.03-1.12-4.5-1.69-7.41-1.69s-5.38.56-7.41,1.69c-2.03,1.13-3.68,2.64-4.94,4.53-1.26,1.89-2.18,4.05-2.76,6.47-.58,2.42-.86,4.91-.86,7.5s.29,4.87.86,7.21Z"/>
        <path class="cls-3" d="M472.57,43.46c-.77-1.24-1.73-2.32-2.88-3.25-1.15-.93-2.46-1.66-3.91-2.18-1.46-.52-2.98-.78-4.57-.78-2.91,0-5.38.56-7.41,1.69-2.03,1.13-3.68,2.64-4.94,4.53-1.26,1.89-2.18,4.05-2.76,6.47-.58,2.42-.86,4.91-.86,7.5s.29,4.87.86,7.21c.58,2.33,1.5,4.43,2.76,6.3,1.26,1.87,2.91,3.36,4.94,4.49,2.03,1.13,4.5,1.69,7.41,1.69,3.95,0,7.04-1.21,9.27-3.62,2.22-2.42,3.58-5.6,4.08-9.55h12.52c-.33,3.68-1.18,7-2.55,9.97-1.37,2.97-3.19,5.49-5.44,7.58-2.25,2.09-4.89,3.68-7.91,4.78-3.02,1.1-6.34,1.65-9.97,1.65-4.5,0-8.55-.78-12.15-2.35-3.6-1.56-6.63-3.72-9.1-6.47-2.47-2.75-4.36-5.97-5.68-9.68s-1.98-7.7-1.98-11.98.66-8.47,1.98-12.23c1.32-3.76,3.21-7.04,5.68-9.84,2.47-2.8,5.5-5,9.1-6.59,3.6-1.59,7.65-2.39,12.15-2.39,3.24,0,6.3.47,9.18,1.4,2.88.93,5.46,2.29,7.74,4.08,2.28,1.78,4.16,3.99,5.64,6.63,1.48,2.64,2.41,5.66,2.8,9.06h-12.52c-.22-1.48-.71-2.84-1.48-4.08Z"/>
        <path class="cls-3" d="M495.3,45.18c1.32-3.76,3.21-7.04,5.68-9.84,2.47-2.8,5.5-5,9.1-6.59,3.6-1.59,7.65-2.39,12.15-2.39s8.62.8,12.19,2.39c3.57,1.59,6.59,3.79,9.06,6.59,2.47,2.8,4.36,6.08,5.68,9.84,1.32,3.76,1.98,7.84,1.98,12.23s-.66,8.28-1.98,11.98-3.21,6.93-5.68,9.68c-2.47,2.75-5.49,4.9-9.06,6.47-3.57,1.56-7.63,2.35-12.19,2.35s-8.55-.78-12.15-2.35c-3.6-1.56-6.63-3.72-9.1-6.47-2.47-2.75-4.36-5.97-5.68-9.68s-1.98-7.7-1.98-11.98.66-8.47,1.98-12.23ZM507.12,64.62c.58,2.33,1.5,4.43,2.76,6.3,1.26,1.87,2.91,3.36,4.94,4.49,2.03,1.13,4.5,1.69,7.41,1.69s5.38-.56,7.41-1.69c2.03-1.12,3.68-2.62,4.94-4.49,1.26-1.87,2.18-3.97,2.76-6.3.58-2.33.86-4.74.86-7.21s-.29-5.08-.86-7.5c-.58-2.42-1.5-4.57-2.76-6.47-1.26-1.89-2.91-3.4-4.94-4.53-2.03-1.12-4.5-1.69-7.41-1.69s-5.38.56-7.41,1.69c-2.03,1.13-3.68,2.64-4.94,4.53-1.26,1.89-2.18,4.05-2.76,6.47-.58,2.42-.86,4.91-.86,7.5s.29,4.87.86,7.21Z"/>
        <path class="cls-3" d="M572.81,27.76l24.55,39.45h.16V27.76h12.11v58.81h-12.93l-24.46-39.37h-.16v39.37h-12.11V27.76h12.85Z"/>
      </g>
      <g>
        <rect class="cls-3" width="114.26" height="114.26"/>
        <g>
          <rect class="cls-2" x="14.67" y="21.73" width="84.92" height="4.75"/>
          <rect class="cls-2" x="14.67" y="30.35" width="84.92" height="4.75"/>
          <rect class="cls-2" x="14.67" y="38.98" width="84.92" height="4.75"/>
          <path class="cls-1" d="M48.64,92.52h-4.75v-30.65c0-22.13,18-40.13,40.13-40.13h15.57v4.75h-15.57c-19.51,0-35.38,15.87-35.38,35.38v30.65Z"/>
          <path class="cls-1" d="M57.26,92.52h-4.75v-30.84c0-17.27,14.05-31.33,31.32-31.33h15.75v4.75h-15.75c-14.65,0-26.57,11.92-26.57,26.57v30.84Z"/>
          <path class="cls-1" d="M65.88,92.52h-4.75v-30.07c0-12.94,10.53-23.47,23.47-23.47h14.98v4.75h-14.98c-10.32,0-18.72,8.4-18.72,18.72v30.07Z"/>
        </g>
      </g>
    </g>
  </g>
</svg>